<svg  xmlns="https://www.w3.org/2000/svg" fill="#000000" height="500px" viewBox="-20 -20 40 40" >

    <path id="roof" d ="M 0.46 -17.92 a 1 1 0 0 0 -0.971 0 l -13.931 6.332 a 1 1 0 0 0 0.548 2.871 l 27.778 -0.127 a 1 1 0 0 0 0.676 -2.702 Z "></path>
    <path id="foundation" d ="M -14.303 10.435 a 1 1 0 0 0 0 2.742 l 28.575 0 a 1 1 0 0 0 -0.163 -2.742 l -14.091 0 Z">
        <!-- M -13.581 35.425 a 1 1 0 0 0 14.397 1.302 l -2.496 -0.325 a 1 1 0 0 1 -9.044 0.326 l -0.217 -1.411 Z -->
    </path>

    <path id="column1" d="M -11.999 -6.037 l 0 12.762 l 2.828 0 l 0 -12.762 Z "> 
        <!-- M-.5078,-1.037 l0,12.762 l2.828,0 l0,-12.762 Z-->
    
    </path>
    <path id="column2" d="M -5.078 -6.037 l 0 12.762 l 2.828 0 l 0 -12.762 Z "> </path>
    <path id="column3" d="M 2.078 -6.037 l 0 12.762 l 2.828 0 l 0 -12.762 Z"> </path>
    <path id="column4" d="M 9.078 -6.037 l 0 12.762 l 2.828 0 l 0 -12.762 Z "> </path>
    <path id="floor" d="M -12.503 6.735 a 1 1 0 0 0 0 2.742 l 24.999 0 a 1 1 0 0 0 -0.163 -2.774 l -12.327 -0.014 Z "> 
    <!-- M -12.171 27.43 c 3.415 3.934 10.889 3.799 10.593 8.949 l 2.322 0.204 c -0.109 -8.103 -10.853 -7.959 -11.576 -11.215 l -1.953 0.072 Z -->
    </path>
    <path id="ceiling" d="M -11.918 -7.493 c -1.678 -0.108 -1.568 1.582 -0.081 1.456 l 24.059 -0.011 c 1.396 0.048 1.339 -1.54 -0.067 -1.464 l -11.987 0.063 Z">
        <animate attributeName="d" dur="4s" repeatCount="indefinite" values="M -11.918 -7.493 c -1.678 -0.108 -1.568 1.582 -0.081 1.456 l 24.059 -0.011 c 1.396 0.048 1.339 -1.54 -0.067 -1.464 l -11.987 0.063 Z;M 0.908 21.631 a 1 1 0 0 0 -13.874 3.593 l 2.098 -0.036 a 1 1 0 0 1 9.944 -1.168 l 2.285 -0.038 Z"/>
        <!-- M 0.908 21.631 a 1 1 0 0 0 -13.874 3.593 l 2.098 -0.036 a 1 1 0 0 1 9.944 -1.168 l 2.285 -0.038 Z -->
     </path>
</svg>


 

 
 


